%TF.GenerationSoftware,KiCad,Pcbnew,8.0.7*%
%TF.CreationDate,2024-12-30T14:37:35-05:00*%
%TF.ProjectId,SwitchBoard,53776974-6368-4426-9f61-72642e6b6963,rev?*%
%TF.SameCoordinates,Original*%
%TF.FileFunction,Drillmap*%
%TF.FilePolarity,Positive*%
%FSLAX45Y45*%
G04 Gerber Fmt 4.5, Leading zero omitted, Abs format (unit mm)*
G04 Created by KiCad (PCBNEW 8.0.7) date 2024-12-30 14:37:35*
%MOMM*%
%LPD*%
G01*
G04 APERTURE LIST*
%ADD10C,0.050000*%
%ADD11C,0.200000*%
G04 APERTURE END LIST*
D10*
X15590000Y-5980000D02*
X17770000Y-5980000D01*
X17770000Y-7520000D01*
X15590000Y-7520000D01*
X15590000Y-5980000D01*
D11*
X15848277Y-7833984D02*
X15848277Y-7633984D01*
X15848277Y-7633984D02*
X15895896Y-7633984D01*
X15895896Y-7633984D02*
X15924467Y-7643508D01*
X15924467Y-7643508D02*
X15943515Y-7662555D01*
X15943515Y-7662555D02*
X15953039Y-7681603D01*
X15953039Y-7681603D02*
X15962562Y-7719698D01*
X15962562Y-7719698D02*
X15962562Y-7748269D01*
X15962562Y-7748269D02*
X15953039Y-7786365D01*
X15953039Y-7786365D02*
X15943515Y-7805412D01*
X15943515Y-7805412D02*
X15924467Y-7824460D01*
X15924467Y-7824460D02*
X15895896Y-7833984D01*
X15895896Y-7833984D02*
X15848277Y-7833984D01*
X16048277Y-7833984D02*
X16048277Y-7700650D01*
X16048277Y-7738746D02*
X16057801Y-7719698D01*
X16057801Y-7719698D02*
X16067324Y-7710174D01*
X16067324Y-7710174D02*
X16086372Y-7700650D01*
X16086372Y-7700650D02*
X16105420Y-7700650D01*
X16172086Y-7833984D02*
X16172086Y-7700650D01*
X16172086Y-7633984D02*
X16162562Y-7643508D01*
X16162562Y-7643508D02*
X16172086Y-7653031D01*
X16172086Y-7653031D02*
X16181610Y-7643508D01*
X16181610Y-7643508D02*
X16172086Y-7633984D01*
X16172086Y-7633984D02*
X16172086Y-7653031D01*
X16295896Y-7833984D02*
X16276848Y-7824460D01*
X16276848Y-7824460D02*
X16267324Y-7805412D01*
X16267324Y-7805412D02*
X16267324Y-7633984D01*
X16400658Y-7833984D02*
X16381610Y-7824460D01*
X16381610Y-7824460D02*
X16372086Y-7805412D01*
X16372086Y-7805412D02*
X16372086Y-7633984D01*
X16629229Y-7833984D02*
X16629229Y-7633984D01*
X16629229Y-7633984D02*
X16695896Y-7776841D01*
X16695896Y-7776841D02*
X16762562Y-7633984D01*
X16762562Y-7633984D02*
X16762562Y-7833984D01*
X16943515Y-7833984D02*
X16943515Y-7729222D01*
X16943515Y-7729222D02*
X16933991Y-7710174D01*
X16933991Y-7710174D02*
X16914944Y-7700650D01*
X16914944Y-7700650D02*
X16876848Y-7700650D01*
X16876848Y-7700650D02*
X16857801Y-7710174D01*
X16943515Y-7824460D02*
X16924467Y-7833984D01*
X16924467Y-7833984D02*
X16876848Y-7833984D01*
X16876848Y-7833984D02*
X16857801Y-7824460D01*
X16857801Y-7824460D02*
X16848277Y-7805412D01*
X16848277Y-7805412D02*
X16848277Y-7786365D01*
X16848277Y-7786365D02*
X16857801Y-7767317D01*
X16857801Y-7767317D02*
X16876848Y-7757793D01*
X16876848Y-7757793D02*
X16924467Y-7757793D01*
X16924467Y-7757793D02*
X16943515Y-7748269D01*
X17038753Y-7700650D02*
X17038753Y-7900650D01*
X17038753Y-7710174D02*
X17057801Y-7700650D01*
X17057801Y-7700650D02*
X17095896Y-7700650D01*
X17095896Y-7700650D02*
X17114944Y-7710174D01*
X17114944Y-7710174D02*
X17124467Y-7719698D01*
X17124467Y-7719698D02*
X17133991Y-7738746D01*
X17133991Y-7738746D02*
X17133991Y-7795888D01*
X17133991Y-7795888D02*
X17124467Y-7814936D01*
X17124467Y-7814936D02*
X17114944Y-7824460D01*
X17114944Y-7824460D02*
X17095896Y-7833984D01*
X17095896Y-7833984D02*
X17057801Y-7833984D01*
X17057801Y-7833984D02*
X17038753Y-7824460D01*
X17219705Y-7814936D02*
X17229229Y-7824460D01*
X17229229Y-7824460D02*
X17219705Y-7833984D01*
X17219705Y-7833984D02*
X17210182Y-7824460D01*
X17210182Y-7824460D02*
X17219705Y-7814936D01*
X17219705Y-7814936D02*
X17219705Y-7833984D01*
X17219705Y-7710174D02*
X17229229Y-7719698D01*
X17229229Y-7719698D02*
X17219705Y-7729222D01*
X17219705Y-7729222D02*
X17210182Y-7719698D01*
X17210182Y-7719698D02*
X17219705Y-7710174D01*
X17219705Y-7710174D02*
X17219705Y-7729222D01*
M02*
