%TF.GenerationSoftware,KiCad,Pcbnew,8.0.7*%
%TF.CreationDate,2024-12-30T14:37:26-05:00*%
%TF.ProjectId,SwitchBoard,53776974-6368-4426-9f61-72642e6b6963,rev?*%
%TF.SameCoordinates,Original*%
%TF.FileFunction,Copper,L1,Top*%
%TF.FilePolarity,Positive*%
%FSLAX46Y46*%
G04 Gerber Fmt 4.6, Leading zero omitted, Abs format (unit mm)*
G04 Created by KiCad (PCBNEW 8.0.7) date 2024-12-30 14:37:26*
%MOMM*%
%LPD*%
G01*
G04 APERTURE LIST*
%TA.AperFunction,SMDPad,CuDef*%
%ADD10C,3.000000*%
%TD*%
%TA.AperFunction,ComponentPad*%
%ADD11C,3.000000*%
%TD*%
%TA.AperFunction,Conductor*%
%ADD12C,0.760000*%
%TD*%
%TA.AperFunction,Conductor*%
%ADD13C,0.200000*%
%TD*%
G04 APERTURE END LIST*
D10*
%TO.P,H4,1,1*%
%TO.N,Net-(SW2-B)*%
X158000000Y-65600000D03*
%TD*%
%TO.P,H1,1,1*%
%TO.N,Net-(SW1-A)*%
X175700000Y-63000000D03*
%TD*%
%TO.P,H6,1,1*%
%TO.N,Net-(SW1-C)*%
X158000000Y-69500000D03*
%TD*%
%TO.P,H5,1,1*%
%TO.N,Net-(SW2-C)*%
X158000000Y-73200000D03*
%TD*%
D11*
%TO.P,SW1,1,A*%
%TO.N,Net-(SW1-A)*%
X171500000Y-63000000D03*
%TO.P,SW1,2,B*%
%TO.N,Net-(SW1-B)*%
X162100000Y-63000000D03*
%TO.P,SW1,3,C*%
%TO.N,Net-(SW1-C)*%
X166800000Y-63000000D03*
%TD*%
D10*
%TO.P,H3,1,1*%
%TO.N,Net-(SW1-B)*%
X158000000Y-61800000D03*
%TD*%
%TO.P,H2,1,1*%
%TO.N,Net-(SW2-C)*%
X175700000Y-70000000D03*
%TD*%
D11*
%TO.P,SW2,1,A*%
%TO.N,Net-(SW1-A)*%
X171500000Y-70000000D03*
%TO.P,SW2,2,B*%
%TO.N,Net-(SW2-B)*%
X162100000Y-70000000D03*
%TO.P,SW2,3,C*%
%TO.N,Net-(SW2-C)*%
X166800000Y-70000000D03*
%TD*%
D12*
%TO.N,Net-(SW1-C)*%
X164500000Y-71200000D02*
X164500000Y-65300000D01*
X163300000Y-72400000D02*
X164500000Y-71200000D01*
X164500000Y-65300000D02*
X166800000Y-63000000D01*
X158000000Y-69500000D02*
X160900000Y-72400000D01*
X160900000Y-72400000D02*
X163300000Y-72400000D01*
%TO.N,Net-(SW2-C)*%
X166800000Y-71500000D02*
X166800000Y-70000000D01*
X164100000Y-74200000D02*
X159000000Y-74200000D01*
X166800000Y-71500000D02*
X164100000Y-74200000D01*
X175900000Y-72400000D02*
X175900000Y-70000000D01*
X169200000Y-72400000D02*
X175900000Y-72400000D01*
X166800000Y-70000000D02*
X169200000Y-72400000D01*
D13*
X158000000Y-73200000D02*
X159000000Y-74200000D01*
%TO.N,Net-(SW2-B)*%
X158800000Y-66400000D02*
X158000000Y-65600000D01*
%TO.N,Net-(SW2-C)*%
X158400000Y-73200000D02*
X158000000Y-73200000D01*
D12*
X158160000Y-73360000D02*
X158000000Y-73200000D01*
%TO.N,Net-(SW1-B)*%
X160900000Y-61800000D02*
X162100000Y-63000000D01*
X158000000Y-61800000D02*
X160900000Y-61800000D01*
D13*
%TO.N,Net-(SW2-B)*%
X158000000Y-65800000D02*
X158000000Y-65600000D01*
D12*
%TO.N,Net-(SW1-A)*%
X171500000Y-63000000D02*
X175900000Y-63000000D01*
X171500000Y-63000000D02*
X171500000Y-70000000D01*
%TO.N,Net-(SW2-B)*%
X162100000Y-66400000D02*
X158800000Y-66400000D01*
X162100000Y-70000000D02*
X162100000Y-66400000D01*
%TD*%
M02*
